<svg width="36" height="46" viewBox="0 0 36 46" fill="none" xmlns="http://www.w3.org/2000/svg">
<path d="M4.5 45.5C3.2625 45.5 2.20275 45.059 1.32075 44.177C0.438754 43.295 -0.00149618 42.236 3.82004e-06 41V5C3.82004e-06 3.7625 0.441003 2.70275 1.323 1.82075C2.205 0.938754 3.264 0.498504 4.5 0.500004H31.5C32.7375 0.500004 33.7973 0.941004 34.6793 1.823C35.5613 2.705 36.0015 3.764 36 5V41C36 42.2375 35.559 43.2973 34.677 44.1793C33.795 45.0613 32.736 45.5015 31.5 45.5H4.5ZM4.5 41H31.5V5H27V20.75L21.375 17.375L15.75 20.75V5H4.5V41Z" fill="#E49F2F"/>
</svg>
