<svg width="43" height="35" viewBox="0 0 43 35" fill="none" xmlns="http://www.w3.org/2000/svg">
<path d="M0.25 28.125V34.5H4.5V26H2.375C1.20625 26 0.25 26.9562 0.25 28.125ZM15.125 26H6.625V34.5L16.5912 34.4787C17.3987 34.4787 18.1213 34.0325 18.4825 33.31L20.3312 29.2725L16.9525 21.8775L15.125 26ZM42.1337 26.6163C41.9354 26.419 41.7 26.263 41.441 26.1572C41.182 26.0515 40.9047 25.998 40.625 26H38.5V34.5H42.75V28.125C42.75 27.53 42.5162 26.9988 42.1337 26.6163ZM24.9 19.285L33.5062 0.5H26.3875L22.6475 8.93625L21.6063 11.2737L21.5 11.5712L16.6125 0.5H9.49375L18.1 19.285L21.33 26.34L21.5 26.7225L24.5175 33.31C24.8787 34.0325 25.6013 34.4787 26.4088 34.4787L36.375 34.5V26H27.875L24.9 19.285Z" fill="#E49F2F"/>
</svg>
