<svg width="42" height="48" viewBox="0 0 42 48" fill="none" xmlns="http://www.w3.org/2000/svg">
<path d="M38.5 0.375H8.75C6.66142 0.375 4.65838 1.20468 3.18153 2.68153C1.70468 4.15838 0.875 6.16142 0.875 8.25V45C0.875 45.6962 1.15156 46.3639 1.64384 46.8562C2.13613 47.3484 2.80381 47.625 3.5 47.625H35C35.6962 47.625 36.3639 47.3484 36.8562 46.8562C37.3484 46.3639 37.625 45.6962 37.625 45C37.625 44.3038 37.3484 43.6361 36.8562 43.1438C36.3639 42.6516 35.6962 42.375 35 42.375H6.125V41.5C6.125 40.8038 6.40156 40.1361 6.89384 39.6438C7.38613 39.1516 8.05381 38.875 8.75 38.875H38.5C39.1962 38.875 39.8639 38.5984 40.3562 38.1062C40.8484 37.6139 41.125 36.9462 41.125 36.25V3C41.125 2.30381 40.8484 1.63613 40.3562 1.14384C39.8639 0.651562 39.1962 0.375 38.5 0.375ZM19.25 5.625H28V18.75L25.1978 16.65C24.7434 16.3092 24.1908 16.125 23.6228 16.125C23.0548 16.125 22.5022 16.3092 22.0478 16.65L19.25 18.75V5.625ZM35.875 33.625H8.75C7.85561 33.6233 6.96762 33.7757 6.125 34.0756V8.25C6.125 7.55381 6.40156 6.88613 6.89384 6.39384C7.38613 5.90156 8.05381 5.625 8.75 5.625H14V24C14 24.4875 14.1358 24.9654 14.392 25.38C14.6483 25.7947 15.015 26.1299 15.4511 26.3479C15.8871 26.5659 16.3752 26.6582 16.8607 26.6144C17.3463 26.5706 17.81 26.3925 18.2 26.1L23.625 22.0312L29.0522 26.1C29.4422 26.3919 29.9057 26.5695 30.3909 26.6129C30.8761 26.6563 31.3638 26.5639 31.7994 26.346C32.2351 26.128 32.6015 25.7932 32.8577 25.3789C33.1139 24.9646 33.2497 24.4871 33.25 24V5.625H35.875V33.625Z" fill="#E49F2F"/>
</svg>
