<svg width="52" height="47" viewBox="0 0 52 47" fill="none" xmlns="http://www.w3.org/2000/svg">
<path d="M35.6954 8.75001C34.5037 8.75001 33.4832 8.32535 32.6339 7.47601C31.7845 6.62668 31.3613 5.6069 31.3642 4.41668C31.3642 3.22501 31.7889 2.20451 32.6382 1.35518C33.4875 0.505847 34.5066 0.0819027 35.6954 0.0833472C36.887 0.0833472 37.9075 0.508014 38.7569 1.35735C39.6062 2.20668 40.0302 3.22646 40.0287 4.41668C40.0287 5.60835 39.604 6.62885 38.7547 7.47818C37.9054 8.32751 36.8856 8.75146 35.6954 8.75001ZM24.862 17.4167C23.6704 17.4167 22.6506 16.992 21.8027 16.1427C20.9548 15.2933 20.5302 14.2736 20.5287 13.0833C20.5287 11.8917 20.9534 10.8712 21.8027 10.0218C22.652 9.17251 23.6718 8.74857 24.862 8.75001C26.0537 8.75001 27.0742 9.17468 27.9235 10.024C28.7729 10.8733 29.1968 11.8931 29.1954 13.0833C29.1954 14.275 28.7714 15.2955 27.9235 16.1448C27.0757 16.9942 26.0552 17.4181 24.862 17.4167ZM3.08704 46.6667L0.0537109 43.6334L7.96204 35.725L4.65788 26.7875L13.812 17.6333C14.2454 17.2 14.7148 16.875 15.2204 16.6583C15.7259 16.4417 16.2857 16.3333 16.8995 16.3333C17.5134 16.3333 18.0732 16.4417 18.5787 16.6583C19.0843 16.875 19.5537 17.2 19.987 17.6333L24.3204 21.8583C25.2954 22.8333 26.487 23.6011 27.8954 24.1615C29.3037 24.722 30.8204 25.0015 32.4454 25V29.3333C30.2787 29.3333 28.2565 28.9903 26.3787 28.3042C24.5009 27.6181 22.8759 26.5889 21.5037 25.2167L19.987 23.7L14.8954 28.7917L19.4454 33.45V46.6667H15.112V35.2917L12.2954 32.6917V37.4583L3.08704 46.6667ZM32.4454 46.6667V31.5L36.9954 27.1667L35.6954 19.5833C35.1537 20.2333 34.5579 20.8111 33.9079 21.3167C33.2579 21.8222 32.5537 22.2917 31.7954 22.725C30.6037 22.6528 29.4756 22.4 28.411 21.9667C27.3465 21.5333 26.4524 20.9556 25.7287 20.2333C27.3537 19.9445 28.7895 19.3934 30.036 18.5802C31.2826 17.767 32.3017 16.7291 33.0932 15.4667L35.2599 12C35.8738 11.025 36.7224 10.3656 37.8057 10.0218C38.889 9.67807 39.9543 9.72357 41.0015 10.1583L51.9432 14.8167V25H47.6099V17.6333L43.7099 16.1167L49.7766 46.6667H45.2265L41.3265 30.4167L36.7766 34.75V46.6667H32.4432H32.4454Z" fill="#E49F2F"/>
</svg>
